<svg xmlns="http://www.w3.org/2000/svg" xmlns:xlink="http://www.w3.org/1999/xlink" viewBox="0,0,256,256" width="80px" height="80px"><g fill="#e5dede" fill-rule="nonzero" stroke="none" stroke-width="1" stroke-linecap="butt" stroke-linejoin="miter" stroke-miterlimit="10" stroke-dasharray="" stroke-dashoffset="0" font-family="none" font-weight="none" font-size="none" text-anchor="none" style="mix-blend-mode: normal"><g transform="scale(3.2,3.2)"><path d="M40,4c-0.72431,0 -1.79854,0.20038 -3.49023,0.625c-1.69169,0.42462 -3.90605,1.084 -6.52148,2.03711c-5.23087,1.90622 -12.06931,4.98516 -19.5,9.6875l-0.46484,0.29297v0.55078c0,20.60578 4.34247,34.11375 10.24805,43.06836c5.90557,8.95461 13.36131,13.30626 19.36133,15.66797l0.36719,0.14453l0.36719,-0.14453c6.00001,-2.36171 13.45576,-6.71336 19.36133,-15.66797c5.90557,-8.95461 10.24805,-22.46257 10.24805,-43.06836v-0.55078l-0.46484,-0.29297c-7.43069,-4.70234 -14.26913,-7.78128 -19.5,-9.6875c-2.61543,-0.95311 -4.82979,-1.61249 -6.52148,-2.03711c-1.69169,-0.42462 -2.76593,-0.625 -3.49023,-0.625zM40,6c0.21319,0 1.38775,0.15879 3.00391,0.56445c1.61615,0.40566 3.76882,1.04605 6.32227,1.97656c4.98493,1.81659 11.52578,4.79046 18.61914,9.22266c-0.08625,19.9707 -4.29957,32.92666 -9.88672,41.39844c-5.53002,8.38515 -12.37566,12.4473 -18.05859,14.73828c-5.68294,-2.29098 -12.52858,-6.35313 -18.05859,-14.73828c-5.58715,-8.47178 -9.80047,-21.42774 -9.88672,-41.39844c7.09336,-4.4322 13.63421,-7.40606 18.61914,-9.22266c2.55344,-0.93052 4.70611,-1.5709 6.32227,-1.97656c1.61615,-0.40566 2.79071,-0.56445 3.00391,-0.56445zM40,9c-0.552,0 -1,0.448 -1,1c0,0.552 0.448,1 1,1c0.552,0 1,-0.448 1,-1c0,-0.552 -0.448,-1 -1,-1zM36.49609,9.88477c-0.12937,-0.01484 -0.26398,-0.00484 -0.39648,0.03516c-0.53,0.149 -0.82969,0.71023 -0.67969,1.24023c0.13,0.43 0.53094,0.7207 0.96094,0.7207c0.1,0 0.1883,-0.02201 0.2793,-0.04101c0.529,-0.16 0.83969,-0.71023 0.67969,-1.24024c-0.1125,-0.3975 -0.45562,-0.67031 -0.84375,-0.71484zM43.49414,9.88477c-0.38578,0.0443 -0.7257,0.31659 -0.8457,0.71484c-0.149,0.53 0.16141,1.08024 0.69141,1.24024c0.091,0.019 0.1793,0.04101 0.2793,0.04101c0.43,0 0.83094,-0.2907 0.96094,-0.7207c0.149,-0.53 -0.16064,-1.09123 -0.68164,-1.24023h-0.00977c-0.1325,-0.04 -0.26594,-0.04992 -0.39453,-0.03516zM47.0957,11.02148c-0.39131,0.02292 -0.75051,0.27872 -0.88477,0.66797c-0.18,0.521 0.08842,1.09148 0.60742,1.27149c0.111,0.04 0.22108,0.05859 0.33008,0.05859c0.42,0 0.80217,-0.25992 0.95117,-0.66992c0.181,-0.52 -0.09038,-1.08953 -0.60937,-1.26953c-0.13025,-0.0475 -0.26409,-0.06623 -0.39453,-0.05859zM32.90234,11.02539c-0.12944,-0.00799 -0.26233,0.00944 -0.39258,0.05469c-0.52,0.18 -0.79133,0.74953 -0.61133,1.26953c0.141,0.41 0.53141,0.66992 0.94141,0.66992c0.11,0 0.22008,-0.01859 0.33008,-0.05859c0.52,-0.18 0.79937,-0.75049 0.60938,-1.27149c-0.13575,-0.39 -0.48864,-0.64011 -0.87695,-0.66406zM29.37891,12.33594c-0.12937,-0.00188 -0.26117,0.02172 -0.38867,0.07422c-0.511,0.199 -0.76055,0.79078 -0.56055,1.30078c0.161,0.39 0.54069,0.62891 0.92969,0.62891c0.131,0 0.24914,-0.03008 0.36914,-0.08008h0.01172c0.51,-0.2 0.75883,-0.78883 0.54883,-1.29883c-0.1575,-0.3825 -0.52203,-0.61938 -0.91016,-0.625zM50.62109,12.33594c-0.38813,0.00563 -0.75266,0.2425 -0.91016,0.625c-0.21,0.51 0.03883,1.09883 0.54883,1.29883c0.12,0.05 0.25109,0.08008 0.37109,0.08008c0.4,0 0.76969,-0.23891 0.92969,-0.62891c0.21,-0.51 -0.04078,-1.09078 -0.55078,-1.30078c-0.1275,-0.0525 -0.2593,-0.07609 -0.38867,-0.07422zM54.08008,13.79883c-0.39141,-0.01111 -0.76469,0.2093 -0.92969,0.5918c-0.229,0.5 -0.00977,1.09031 0.49023,1.32031c0.14,0.06 0.27992,0.08984 0.41992,0.08984c0.38,0 0.74016,-0.21984 0.91016,-0.58984c0.22,-0.5 0,-1.09031 -0.5,-1.32031c-0.1275,-0.05725 -0.26016,-0.08809 -0.39062,-0.0918zM25.91406,13.80078c-0.1292,0.00292 -0.25977,0.03259 -0.38477,0.08984c-0.511,0.23 -0.73,0.82031 -0.5,1.32031c0.17,0.37 0.53116,0.58984 0.91016,0.58984c0.141,0 0.28016,-0.02984 0.41016,-0.08984c0.51,-0.23 0.73,-0.82031 0.5,-1.32031c-0.17175,-0.375 -0.54794,-0.59861 -0.93555,-0.58984zM57.47852,15.39844c-0.38705,-0.02203 -0.77148,0.18328 -0.95898,0.55078c-0.25,0.489 -0.04078,1.09984 0.44922,1.33984c0.14,0.081 0.29141,0.10938 0.44141,0.10938c0.37,0 0.72844,-0.19783 0.89844,-0.54883c0.25,-0.5 0.05078,-1.10156 -0.44922,-1.35156c-0.12225,-0.06 -0.25184,-0.09227 -0.38086,-0.09961zM22.51563,15.4043c-0.13047,0.00875 -0.26172,0.04297 -0.38672,0.10547c-0.49,0.24 -0.68945,0.83984 -0.43945,1.33984c0.17,0.351 0.53063,0.54883 0.89063,0.54883c0.149,0 0.29922,-0.02861 0.44922,-0.09961c0.489,-0.25 0.68922,-0.84961 0.44922,-1.34961c-0.1875,-0.3675 -0.57148,-0.57117 -0.96289,-0.54492zM42.72461,16c0.276,2.243 2.17914,5.30908 3.86914,7.20508c-0.923,-0.076 -1.95945,-1.16862 -2.43945,-1.76562c-1.709,1.065 -4.8137,0.96972 -7.2207,1.01172c0.882,0.165 1.81284,0.33861 2.96484,0.72461c-2.939,-0.129 -10.07717,-0.33842 -12.07617,2.89258c0.696,-0.269 1.39094,-0.48478 2.08594,-0.55078c-1.332,1.158 -5.39995,4.18772 -5.50195,7.51172c0.446,-0.52 1.28617,-1.2697 1.95117,-1.4707c-1.054,1.873 -3.63509,7.21489 -2.37109,9.08789c0,-0.307 0.21706,-1.07105 0.41406,-1.12305c0.12,-0.033 0.23267,0.4285 0.51367,1.1875c0.415,1.12 1.58842,3.82528 3.60742,5.48828c-2.422,-3.813 -3.37064,-10.35811 0.69336,-15.53711c3.281,-4.182 10.19375,-5.6372 14.84375,-2.5332c0.228,-0.964 1.56213,-2.00737 2.95313,-1.23437c-0.937,0.121 -2.52074,0.43339 -2.30273,1.90039c0.132,0.888 1.11658,1.52686 1.39258,1.63086c-2.467,2.221 -11.41031,4.27111 -12.57031,0.41211c-0.223,0.196 -1.49706,2.01841 -1.53906,0.69141c-0.034,-1.085 2.42445,-3.1408 3.68945,-4.2168c-4.546,1.002 -6.03728,3.52264 -7.36328,6.30664c-1.475,3.096 -1.40689,6.79334 -0.33789,10.52734c0.295,1.031 0.75611,1.93119 1.03711,2.74219c0.639,-0.654 0.83886,-2.18281 1.50586,-3.00781c0.661,-0.818 2.06511,-1.12392 3.53711,-0.79492c-0.643,-1.016 -1.54483,-1.32653 -2.67383,-3.51953c-0.578,-1.124 -1.02494,-2.57175 -0.96094,-3.96875c0.891,2.966 2.87205,5.74781 6.24805,6.50781c-1.799,-0.545 -3.32909,-2.15191 -4.24609,-4.00391c-0.191,-0.385 -0.41455,-0.79817 -0.68555,-1.57617c-0.162,-0.465 -0.11911,-0.7432 0.08789,-0.9082c0.202,-0.162 0.44586,-0.16669 0.88086,0.07031c1.259,0.686 8.12308,3.29991 13.58008,-0.62109c-3.857,1.898 -9.1075,2.41539 -12.0625,-0.22461c-0.156,-0.14 -0.31502,-0.31439 -0.29102,-0.52539c0.034,-0.289 0.61614,-0.46728 1.36914,-0.48828c0.623,-0.017 1.2378,0.01537 1.8418,-0.01562c2.328,-0.117 5.40697,-0.64245 7.91797,-2.18945c0.802,-0.493 1.12391,-0.86075 1.50391,-1.09375c0.159,-0.097 0.36288,-0.07775 0.54688,-0.09375c0.523,-0.219 1.21773,-0.18797 1.80273,0.33203c0.537,-0.22 0.87976,0.00969 1.50977,0.42969c0.34,0.226 0.76509,0.4563 0.74609,0.6543c-0.026,0.286 -0.39134,0.48223 -0.77734,0.61523c-0.283,0.097 -0.53406,0.12133 -0.66406,0.23633c2.246,0.122 3.29055,0.01472 2.43555,1.38672c1.167,-0.164 1.80892,-1.20434 1.79492,-2.27734c-0.147,0.134 -0.29197,0.2492 -0.41797,0.2832c0.12,-0.436 0.13312,-0.72659 0.07813,-1.18359c-0.088,0.093 -0.09847,0.43309 -0.23047,0.62109c-0.23,0.325 -0.46383,0.42006 -0.79883,0.41406c-0.227,-0.604 -0.50244,-1.46773 -0.89844,-2.05273c0.01,0.229 -0.12522,0.33786 -0.19922,0.63086c-0.205,-0.621 -0.41969,-0.73991 -1.05469,-0.87891c-0.448,-0.08 -1.1357,-0.46558 -1.0957,-0.89258c0.048,-0.508 0.98442,-0.52469 1.35742,-0.55469c0.059,0.289 0.11339,0.59988 0.15039,0.92188c0.5,-0.405 2.27636,-0.6155 2.56836,-0.0625c0.117,0.222 -0.37969,0.67214 -0.67969,0.86914c0.979,-0.085 1.41247,-0.47909 1.73047,-0.62109c0.177,0.467 0.09981,1.03059 0.00781,1.68359c0.764,-0.763 0.9212,-1.65866 1.0332,-2.47266c0.329,-0.079 0.75127,0.65938 1.07227,1.23438c-0.051,-0.694 -0.78,-1.45222 -1.25,-1.94922c-0.253,-0.267 -0.23045,-0.35836 -0.31445,-0.69336c-0.792,0.052 -1.38594,0.14173 -1.46094,-0.82227c-1.524,0.059 -1.39277,-1.36203 -1.50977,-2.08203c-0.052,-0.325 -0.5722,-0.71119 -1.0332,-0.86719c-0.571,-0.193 -0.85103,-0.04305 -1.33203,-0.12305c-2.888,-0.481 -6.09989,-5.04284 -6.96289,-7.21484zM19.18555,17.12891c-0.12881,0.0135 -0.2567,0.05334 -0.37695,0.12109h-0.00977c-0.48,0.26 -0.66062,0.87037 -0.39062,1.35938c0.181,0.33 0.52086,0.52148 0.88086,0.52148c0.16,0 0.32047,-0.04086 0.48047,-0.13086c0.48,-0.26 0.65962,-0.87056 0.39063,-1.35156c-0.19575,-0.36675 -0.58817,-0.56003 -0.97461,-0.51953zM60.81445,17.12891c-0.38611,-0.04092 -0.77961,0.14977 -0.97461,0.50977c-0.271,0.49 -0.08937,1.10037 0.39063,1.35938c0.15,0.091 0.32047,0.12109 0.48047,0.12109c0.359,0 0.69891,-0.17953 0.87891,-0.51953c0.27,-0.479 0.08961,-1.09156 -0.40039,-1.35156c-0.11975,-0.06775 -0.2463,-0.1055 -0.375,-0.11914zM40.28711,18.44336c0.317,0.656 1.67956,3.28125 2.35156,3.28125c0.314,0 0.593,-0.13548 0.875,-0.27148c-0.808,-0.679 -2.39556,-2.26477 -3.22656,-3.00977zM63.94922,18.97461c-0.552,0 -1,0.448 -1,1c0,0.552 0.448,1 1,1c0.552,0 1,-0.448 1,-1c0,-0.552 -0.448,-1 -1,-1zM16.05078,18.98438c-0.552,0 -1,0.448 -1,1c0,0.552 0.448,1 1,1c0.552,0 1,-0.448 1,-1c0,-0.552 -0.448,-1 -1,-1zM23.53516,22.67969c-0.12964,-0.00041 -0.25047,0.01859 -0.35547,0.05859c0.44,0.04 1.18064,0.32544 1.18164,0.64844c0.002,0.512 -0.5105,0.33317 -0.4375,1.57617c0.049,0.83 0.44753,1.20884 0.64453,1.71484c0.099,0.256 0.15522,0.47495 0.07422,0.62695c-0.067,0.127 -0.39361,-0.04877 -0.72461,-0.25977c-0.398,-0.255 -0.85116,-0.62541 -0.91016,-1.19141c-0.03,-0.29 -0.43459,-0.77644 -0.93359,-1.02344c-0.564,-0.28 -1.25902,-0.37842 -1.66602,-0.10742c0.757,-0.046 1.52787,0.22981 1.67188,0.75781c0.076,0.279 0.00784,0.98562 0.08984,1.14063c0.135,0.256 0.46128,0.13675 0.73828,0.46875c0.277,0.332 0.38331,0.62562 0.69531,0.89063c1.008,0.857 2.11384,0.34433 1.71484,1.98633c0.455,-1 1.33205,-2.05645 2.24805,-2.68945c-0.286,0.024 -0.75614,0.36719 -0.99414,0.36719c-0.546,0 -0.30206,-1.74506 0.08594,-1.78906c0.126,-0.014 0.13892,0.1017 0.29492,0.0957c0.356,-0.013 0.63462,-0.42522 0.64063,-0.69922c0.011,-0.535 -0.68202,-1.52113 -1.16602,-1.70312c0.367,0.45 0.73405,1.01513 0.37305,1.32813c-0.182,0.159 -0.45022,-0.21187 -0.69922,-0.17187c-0.57,0.092 -0.46567,2.17455 -0.63867,2.18555c-0.263,0.017 -0.80403,-2.14395 -0.58203,-2.37695c0.123,-0.129 0.33564,0.01831 0.43164,-0.05469c0.131,-0.1 -0.12741,-0.79628 -0.56641,-1.23828c-0.35475,-0.357 -0.82202,-0.5398 -1.21094,-0.54102zM63.85938,22.84961c-0.55,-0.02 -1.01883,0.40117 -1.04883,0.95117c-0.029,0.55 0.39022,1.01883 0.94922,1.04883h0.05078c0.53,0 0.971,-0.41045 1,-0.93945c0.03,-0.561 -0.40017,-1.02955 -0.95117,-1.06055zM16.13867,22.86914c-0.55,0.029 -0.97822,0.50078 -0.94922,1.05078c0.031,0.53 0.471,0.94922 1,0.94922h0.05078c0.55,-0.03 0.97922,-0.49955 0.94922,-1.06055c-0.029,-0.55 -0.50078,-0.97045 -1.05078,-0.93945zM50.10156,24.38672c0.635,0.323 1.11225,0.47933 1.28125,0.61133c0.126,0.099 0.23588,0.56516 0.17188,0.91016c-0.587,-0.034 -1.21012,-0.61948 -1.45313,-1.52148zM63.63086,26.72852c-0.55,-0.05 -1.0418,0.36016 -1.0918,0.91016c-0.04,0.55 0.35916,1.04008 0.91016,1.08008c0.029,0.01 0.05984,0.00977 0.08984,0.00977c0.51,0 0.95,-0.39892 1,-0.91992c0.04,-0.55 -0.3582,-1.02908 -0.9082,-1.08008zM16.36914,26.75c-0.551,0.04 -0.9582,0.53008 -0.9082,1.08008c0.05,0.52 0.479,0.91016 1,0.91016h0.08984c0.55,-0.051 0.95016,-0.5408 0.91016,-1.0918c-0.05,-0.55 -0.5418,-0.94844 -1.0918,-0.89844zM63.25977,30.59961c-0.55,-0.069 -1.04914,0.32133 -1.11914,0.86133c-0.07,0.55 0.31914,1.04914 0.86914,1.11914c0.04,0.01 0.08109,0.00977 0.12109,0.00977c0.5,0 0.92828,-0.36914 0.98828,-0.86914c0.069,-0.55 -0.31038,-1.06109 -0.85937,-1.12109zM16.74023,30.60938c-0.551,0.07 -0.93038,0.57109 -0.85938,1.12109c0.059,0.499 0.48828,0.86914 0.98828,0.86914h0.12109c0.55,-0.08 0.93914,-0.56814 0.86914,-1.11914c-0.069,-0.55 -0.56914,-0.94009 -1.11914,-0.87109zM48.94727,31.71484c-2.518,2.139 -6.19592,3.11722 -10.66992,3.07422c-1.196,-0.012 -2.94313,-0.52441 -2.95312,-0.06641c0,0.746 2.66066,0.83775 3.59766,0.84375c2.004,0.011 6.74439,-0.40356 10.02539,-3.85156zM62.73047,34.43945c-0.54,-0.09 -1.06139,0.28031 -1.15039,0.82031c-0.09,0.55 0.27131,1.06016 0.82031,1.16016c0.05,0.01 0.11016,0.00977 0.16016,0.00977c0.48,0 0.91023,-0.35008 0.99023,-0.83008c0.09,-0.55 -0.27031,-1.06016 -0.82031,-1.16016zM17.26953,34.46094c-0.54,0.09 -0.91131,0.60844 -0.82031,1.14844c0.08,0.491 0.51123,0.83008 0.99023,0.83008c0.051,0 0.11016,0.00023 0.16016,-0.00977c0.54663,-0.09939 0.9043,-0.60426 0.82031,-1.15039c-0.09,-0.551 -0.61039,-0.91936 -1.15039,-0.81836zM32.89258,36.27539c-0.0932,-0.02273 -0.16923,0.01208 -0.20898,0.14258c-0.202,0.66 2.80111,4.16795 8.78711,3.37695c-2.404,0 -6.22169,-0.62425 -7.80469,-2.78125c-0.0615,-0.08325 -0.49383,-0.67008 -0.77344,-0.73828zM44.77344,36.9375c1.637,0.594 3.16614,1.35175 3.24414,1.96875c0.082,0.64 -1.41369,1.42009 -2.67969,0.62109c0.884,1.273 2.60664,1.35314 2.68164,1.24414c0.07,-0.101 -0.17536,-0.47778 -0.06836,-0.67578c0.264,-0.495 2.15978,0.19683 2.42578,0.54883c-0.648,-2.264 -3.62452,-3.80003 -5.60352,-3.70703zM44.50195,38.00195c-0.614,1.689 0.72022,3.01034 1.57422,3.27734c0.756,0.236 0.69711,0.911 0.66211,1c-0.177,0.458 -0.99708,0.52053 -1.83008,0.14453c-0.976,-0.441 -1.74663,-1.67022 -2.14062,-2.44922c0.553,2.001 1.8922,3.14587 3.5332,3.67188c0.653,0.209 2.1613,0.27484 3.7793,-0.16016c-1.362,-0.109 -1.97489,-0.19362 -2.46289,-0.64062c-0.296,-0.27 -0.23845,-0.86988 -0.06445,-1.04687c0.141,-0.144 0.56483,0.08116 1.29883,0.03516c1.743,-0.108 3.01952,0.16483 3.60352,0.67383c0.58,0.505 0.89125,1.072 0.90625,1.875c0.04,2.155 -1.6027,4.94961 -2.9707,7.09961c-1.083,1.927 -2.06109,2.68086 -3.99609,3.50586c-1.517,0.647 -3.20805,0.91248 -5.12305,1.02148h-0.76953c-2.013,0 -3.85648,-0.42122 -4.89648,-2.32422c-1.07,-1.96 -1.0312,-4.63903 -0.6582,-6.83203c-0.388,0.081 -0.95833,1.12123 -2.86133,1.11523c-0.918,-0.003 -1.64858,-0.59991 -1.64258,-1.25391c0.007,-0.797 1.0875,-1.55706 1.8125,-1.53906c0.623,0 0.99777,0.59267 1.00977,0.88867c0.005,0.12 -0.2662,0.46875 -0.7832,0.46875c-0.483,-0.025 -0.6425,-0.36977 -0.8125,-0.63477c-0.588,1.64 2.10095,1.97413 3.00195,0.45312c0.516,-0.871 0.44216,-2.01972 -0.21484,-2.63672c-0.914,-0.861 -3.44198,-0.40723 -4.08398,1.13477c-0.231,0.534 -0.32844,1.03733 -0.64844,1.61133c-0.154,0.277 -0.75352,1.22694 -0.85352,1.33594c0.921,0.054 1.86667,0.57139 1.88867,1.52539c0.017,0.723 -0.46889,0.93825 -0.46289,1.78125c0.009,0.983 0.97413,1.43051 1.57813,1.97852c0.79,0.717 1.10327,1.26834 1.07227,1.77734c-0.094,1.559 1.54741,1.13772 2.81641,1.76172c1.591,0.783 0.0967,2.36739 3.3457,1.52539c0.981,-0.254 2.00889,0.64217 3.21289,0.57617c1.02,-0.056 2.24864,-1.38344 3.43164,-1.89844c1.449,-0.631 2.92786,-0.25086 3.88086,-1.38086c0.675,-0.853 0.62869,-1.93234 1.55469,-3.65234c0.825,-1.532 1.52277,-1.37037 2.00977,-2.60937c0.295,-0.75 0.64573,-2.32375 0.80273,-2.96875c0.183,-0.745 0.87947,-0.99898 0.85547,-1.95898c-0.009,-0.375 -0.26211,-0.80483 -0.41211,-1.29883c-0.271,-0.893 -0.79062,-1.41822 -1.26562,-1.57422c-1.539,-0.509 -2.82477,-0.15475 -5.00977,-0.21875c-1.623,-0.048 -3.59297,-0.70316 -3.66797,-3.16016zM61.63672,38.26172c-0.38109,0.06802 -0.70687,0.35628 -0.79687,0.76953c-0.11242,0.53601 0.22373,1.07034 0.75977,1.18945c0.08,0.009 0.14975,0.01953 0.21875,0.01953c0.461,0 0.8697,-0.3193 0.9707,-0.7793h0.01172c0.12,-0.54 -0.23148,-1.08141 -0.77148,-1.19141c-0.1325,-0.03 -0.26555,-0.03048 -0.39258,-0.00781zM18.36719,38.27344c-0.1275,-0.02344 -0.26149,-0.02219 -0.39648,0.00781c-0.54,0.119 -0.87976,0.64945 -0.75977,1.18945c0.099,0.469 0.50875,0.78906 0.96875,0.78906c0.07,0 0.1507,-0.0093 0.2207,-0.0293c0.54,-0.12 0.87977,-0.64945 0.75977,-1.18945c-0.09,-0.405 -0.41047,-0.69727 -0.79297,-0.76758zM60.75,42.01563c-0.38948,0.04453 -0.72809,0.31734 -0.83984,0.71484v0.01172c-0.15,0.529 0.15945,1.07852 0.68945,1.22852c0.089,0.019 0.19125,0.03906 0.28125,0.03906c0.43,0 0.82898,-0.28952 0.95898,-0.72852c0.15,-0.53 -0.15945,-1.09147 -0.68945,-1.23047c-0.135,-0.04 -0.27056,-0.05 -0.40039,-0.03516zM19.25391,42.03125c-0.12844,-0.01625 -0.26203,-0.0082 -0.39453,0.0293c-0.54,0.15 -0.85022,0.70047 -0.69922,1.23047h0.01172c0.119,0.438 0.51798,0.72852 0.95898,0.72852c0.09,0 0.17953,-0.00906 0.26953,-0.03906c0.53,-0.149 0.84045,-0.69852 0.68945,-1.22852c-0.1125,-0.3975 -0.45062,-0.67195 -0.83594,-0.7207zM55.55664,42.36914c-0.391,0.313 -0.67311,0.13377 -0.78711,0.38477c-0.097,0.214 0.14816,0.31281 0.28516,0.25781c0.235,-0.093 0.38395,-0.39058 0.50195,-0.64258zM59.64648,45.71094c-0.38873,0.02077 -0.74422,0.27047 -0.88672,0.66797c-0.18,0.52 0.09109,1.08953 0.62109,1.26953c0.099,0.04 0.22008,0.0625 0.33008,0.0625c0.41,0 0.7985,-0.26188 0.9375,-0.67188c0.181,-0.521 -0.09038,-1.08853 -0.60938,-1.26953c-0.13025,-0.04725 -0.263,-0.06551 -0.39258,-0.05859zM20.35352,45.72656c-0.13019,-0.00798 -0.26283,0.00944 -0.39258,0.05469c-0.521,0.18 -0.79133,0.7503 -0.61133,1.2793c0.15,0.41 0.53117,0.66016 0.95117,0.66016c0.11,0 0.22008,-0.02078 0.33008,-0.05078c0.52,-0.19 0.78937,-0.7593 0.60938,-1.2793c-0.13575,-0.39 -0.49616,-0.64011 -0.88672,-0.66406zM38.93359,45.87305c-1.153,-0.055 -2.38122,0.19645 -2.44922,1.06445c-0.059,0.755 0.56048,0.52302 0.52148,0.79102c-0.089,0.634 -0.52308,1.47878 -1.20508,1.55078c-0.583,0.061 -0.18556,-1.11245 -0.60156,-1.43945c-0.206,1.378 -0.11489,2.7083 0.16211,4.0293c0.057,-1.634 1.41598,-0.40998 2.83398,-0.45898c0.437,-0.015 0.92384,-0.32738 1.46484,-0.23437c0.093,0.017 0.47267,0.22577 0.63867,0.00977c0.941,-1.219 1.44172,-1.18037 2.63672,-0.23437c-0.422,-1.148 -2.13722,-1.50831 -3.07422,-0.82031c-0.496,0.422 -0.93964,0.32853 -1.55664,0.26953c-0.371,-0.036 -0.61705,0.03187 -0.62305,-0.20312c-0.005,-0.195 0.34358,-0.47625 0.51758,-0.53125c0.839,-0.267 1.70759,-0.69741 2.05859,-1.56641c0.187,-0.404 0.12606,-0.86314 0.28906,-0.99414c0.253,-0.205 0.79422,-0.05327 1.44922,0.30273c-0.28,-0.36 -0.85397,-0.65873 -1.41797,-0.67773c-0.851,-0.027 -1.54792,0.54948 -1.54492,0.64648c0.006,0.159 0.30578,0.17023 0.30078,0.36523c0,0.391 -1.96389,1.73731 -2.08789,1.57031c-0.15,-0.202 1.0682,-1.36614 1.0332,-2.11914c-0.014,-0.304 -0.72734,-0.21266 -0.77734,-0.47266c-0.092,-0.474 0.80964,-0.75566 1.43164,-0.84766zM54.70313,46.22852c-0.07892,0.00009 -0.14325,0.0083 -0.1875,0.0293c-0.287,0.137 -0.17608,0.50495 0.16992,0.50195c0.546,-0.005 0.74341,-0.36392 1.06641,-0.41992c-0.4335,-0.036 -0.81206,-0.11161 -1.04883,-0.11133zM29.43555,48.59766c-0.904,-0.02 -2.14802,2.07681 -2.16602,2.88281c0.657,-0.806 1.6542,-0.85834 2.4082,-1.27734c0.684,-0.38 0.75381,-1.58247 -0.24219,-1.60547zM58.29883,49.32617c-0.39136,-0.00436 -0.76544,0.22102 -0.92969,0.60352v-0.00977c-0.221,0.51 0.01148,1.09836 0.52148,1.31836c0.13,0.061 0.25744,0.08008 0.39844,0.08008c0.38,0 0.75188,-0.21984 0.92188,-0.58984v-0.00977c0.22,-0.5 -0.02148,-1.09055 -0.52148,-1.31055c-0.1275,-0.05525 -0.26017,-0.08058 -0.39062,-0.08203zM21.69922,49.33594c-0.13042,0.00136 -0.26142,0.02923 -0.38867,0.08398c-0.5,0.22 -0.72877,0.80836 -0.50977,1.31836c0.16,0.37 0.53016,0.60156 0.91016,0.60156c0.14,0 0.26944,-0.02984 0.39844,-0.08984c0.511,-0.22 0.74048,-0.81055 0.52148,-1.31055c-0.165,-0.3825 -0.54038,-0.60759 -0.93164,-0.60352zM51.80273,51.69922c-0.594,0.004 -0.57058,0.81238 0.10742,0.85938c0.508,0.035 1.013,-0.01497 1.5,-0.29297c-0.738,0.02 -1.26042,-0.56641 -1.60742,-0.56641zM56.6875,52.81836c-0.39028,-0.04031 -0.78231,0.15398 -0.97656,0.52148c-0.26,0.49 -0.07984,1.08938 0.41016,1.35938c0.149,0.081 0.30875,0.11914 0.46875,0.11914c0.36,0 0.70086,-0.1893 0.88086,-0.5293c0.271,-0.49 0.08961,-1.08861 -0.40039,-1.34961c-0.12225,-0.0675 -0.25272,-0.10766 -0.38281,-0.12109zM23.31641,52.83594c-0.12889,0.01225 -0.25866,0.04998 -0.37891,0.11523c-0.489,0.26 -0.6692,0.86861 -0.4082,1.34961c0.181,0.339 0.53086,0.5293 0.88086,0.5293c0.159,0 0.31852,-0.03914 0.47852,-0.11914c0.48,-0.26 0.66039,-0.87133 0.40039,-1.36133c-0.195,-0.35925 -0.58598,-0.55042 -0.97266,-0.51367zM31.95508,53.79492c-0.655,0.004 -1.86402,1.39077 -2.04102,2.38477c0.577,-0.677 2.06627,-0.77253 2.44727,-1.14453c0.381,-0.372 0.25075,-1.24423 -0.40625,-1.24023zM54.7832,56.1582c-0.38297,-0.07266 -0.79094,0.08664 -1.02344,0.43164h0.00977c-0.31,0.46 -0.18852,1.08086 0.27148,1.38086c0.169,0.12 0.35783,0.16992 0.54883,0.16992c0.33,0 0.63984,-0.14945 0.83984,-0.43945c0.3,-0.46 0.1807,-1.07962 -0.2793,-1.39062c-0.115,-0.0775 -0.23953,-0.12812 -0.36719,-0.15234zM25.2168,56.17188c-0.12767,0.02375 -0.25219,0.07148 -0.36719,0.14648c-0.46,0.311 -0.57953,0.93258 -0.26953,1.39258c0.19,0.29 0.51008,0.4375 0.83008,0.4375c0.189,0 0.39055,-0.0492 0.56055,-0.1582c0.45,-0.311 0.57853,-0.93062 0.26953,-1.39062c-0.23325,-0.345 -0.64042,-0.49898 -1.02344,-0.42773zM35.32617,56.79883c-0.09471,-0.00494 -0.20028,0.00686 -0.31641,0.03711c-0.519,0.135 -1.26775,1.53009 -1.34375,2.62109c0.49,-0.69 1.32633,-0.92397 2.11133,-1.54297c0.35175,-0.2765 0.21182,-1.08067 -0.45117,-1.11523zM45.84375,57.13281c-0.18713,0.04125 -0.34375,0.18913 -0.34375,0.45313c-0.026,0.713 0.9287,1.62253 1.3457,1.76953c-0.526,-0.749 -0.20966,-1.71002 -0.47266,-2.04102c-0.1255,-0.158 -0.34217,-0.22289 -0.5293,-0.18164zM39.85938,58.52539c-0.11792,-0.02436 -0.24967,-0.00034 -0.38867,0.09766c-0.744,0.526 -0.80006,1.53995 -0.78906,2.37695c0.227,-0.689 1.33127,-1.15017 1.57227,-1.57617c0.17625,-0.30975 -0.04077,-0.82536 -0.39453,-0.89844zM52.18555,59.26367c-0.25512,0.0225 -0.50128,0.14192 -0.67578,0.35742c-0.36,0.42 -0.29914,1.06016 0.13086,1.41016c0.19,0.149 0.40867,0.22852 0.63867,0.22852c0.279,0 0.57048,-0.11937 0.77148,-0.35937c0.35,-0.43 0.28914,-1.06116 -0.13086,-1.41016c-0.215,-0.1755 -0.47925,-0.24906 -0.73437,-0.22656zM27.81836,59.27344c-0.255,-0.0225 -0.51852,0.05352 -0.72852,0.22852c-0.42,0.35 -0.47891,0.9772 -0.12891,1.4082c0.2,0.238 0.47758,0.35938 0.76758,0.35938c0.221,0 0.44963,-0.07952 0.64063,-0.22852c0.42,-0.36 0.47986,-0.99016 0.13086,-1.41016c-0.18,-0.215 -0.42664,-0.33492 -0.68164,-0.35742zM49.65234,62.10352c-0.25625,-0.005 -0.51289,0.08734 -0.71289,0.27734c-0.399,0.38 -0.40853,1.01992 -0.01953,1.41992c0.19,0.199 0.4507,0.29883 0.7207,0.29883c0.25,0 0.49945,-0.0893 0.68945,-0.2793c0.399,-0.38 0.4103,-1.01116 0.0293,-1.41016c-0.195,-0.2 -0.45078,-0.30164 -0.70703,-0.30664zM30.34766,62.11133c-0.255,0.005 -0.50677,0.10859 -0.69727,0.30859c-0.38,0.399 -0.3697,1.0282 0.0293,1.4082c0.19,0.191 0.43945,0.28125 0.68945,0.28125c0.26,0 0.5297,-0.10055 0.7207,-0.31055c0.38,-0.4 0.3707,-1.03016 -0.0293,-1.41016c-0.1995,-0.19 -0.45789,-0.28234 -0.71289,-0.27734zM46.82031,64.63281c-0.25362,-0.03625 -0.52073,0.023 -0.74023,0.1875c-0.44,0.341 -0.52945,0.96116 -0.18945,1.41016c0.19,0.249 0.48983,0.38867 0.79883,0.38867c0.21,0 0.41861,-0.06022 0.59961,-0.19922c0.439,-0.34 0.52045,-0.96039 0.18945,-1.40039c-0.165,-0.2195 -0.40458,-0.35047 -0.6582,-0.38672zM33.18555,64.63672c-0.25238,0.03363 -0.4898,0.16331 -0.6543,0.38281c-0.341,0.45 -0.24955,1.07016 0.18945,1.41016c0.179,0.13 0.38766,0.20117 0.59766,0.20117c0.311,0 0.60078,-0.14039 0.80078,-0.40039c0.34,-0.439 0.25055,-1.07039 -0.18945,-1.40039c-0.225,-0.165 -0.49177,-0.22698 -0.74414,-0.19336zM43.32813,66.78906c-0.129,0.01774 -0.2572,0.06086 -0.37695,0.13086c-0.471,0.28 -0.63156,0.88914 -0.35156,1.36914c0.18,0.311 0.52133,0.49023 0.86133,0.49023c0.17,0 0.34976,-0.05062 0.50977,-0.14062c0.47,-0.28 0.62961,-0.88914 0.34961,-1.36914c-0.20925,-0.35925 -0.60519,-0.53367 -0.99219,-0.48047zM36.68164,66.79102c-0.38705,-0.05062 -0.78219,0.12828 -0.99219,0.48828c-0.279,0.47 -0.12139,1.09014 0.34961,1.36914c0.16,0.091 0.34172,0.14063 0.51172,0.14062c0.34,0 0.67938,-0.181 0.85938,-0.5c0.279,-0.471 0.11944,-1.08914 -0.35156,-1.36914c-0.11975,-0.07 -0.24794,-0.11203 -0.37695,-0.12891zM40,68.57031c-0.552,0 -1,0.448 -1,1c0,0.552 0.448,1 1,1c0.552,0 1,-0.448 1,-1c0,-0.553 -0.448,-1 -1,-1z"></path></g></g></svg>